<?xml version="1.0" standalone="no"?><!DOCTYPE svg PUBLIC "-//W3C//DTD SVG 1.1//EN" "http://www.w3.org/Graphics/SVG/1.1/DTD/svg11.dtd"><svg class="icon" width="200px" height="200.00px" viewBox="0 0 1024 1024" version="1.1" xmlns="http://www.w3.org/2000/svg"><path fill="#333333" d="M512 128A384 384 0 1 0 896 512 383.232 383.232 0 0 0 512 128z m250.112 500.224a29.610667 29.610667 0 0 1-27.562667 17.749333 25.002667 25.002667 0 0 1-11.861333-1.962666l-226.474667-102.4a30.805333 30.805333 0 0 1-17.749333-27.562667V301.312a29.610667 29.610667 0 1 1 59.136 0v194.986667l208.64 94.464a27.562667 27.562667 0 0 1 15.701333 37.376z m0 0" /></svg>