<?xml version="1.0" standalone="no"?><!DOCTYPE svg PUBLIC "-//W3C//DTD SVG 1.1//EN" "http://www.w3.org/Graphics/SVG/1.1/DTD/svg11.dtd"><svg class="icon" width="200px" height="200.00px" viewBox="0 0 1024 1024" version="1.1" xmlns="http://www.w3.org/2000/svg"><path fill="#333333" d="M809.386667 120.234667H214.442667a129.28 129.28 0 0 0-125.610667 132.608v363.690666a135.509333 135.509333 0 0 0 128 139.008h139.605333c35.328 38.144 128 136.106667 128 136.106667a37.973333 37.973333 0 0 0 27.733334 12.202667 38.656 38.656 0 0 0 28.586666-13.056c0.682667-0.853333 72.192-83.712 122.794667-135.168h143.616a135.594667 135.594667 0 0 0 128-139.008V252.842667a129.536 129.536 0 0 0-125.781333-132.608zM307.712 493.568a52.992 52.992 0 1 1 37.12-15.445333 52.992 52.992 0 0 1-37.461333 15.530666z m208.64 0a52.992 52.992 0 1 1 37.546667-15.530667 52.992 52.992 0 0 1-37.546667 15.530667z m208.64 0a52.992 52.992 0 1 1 37.546667-15.530667 52.992 52.992 0 0 1-37.546667 15.530667z m0 0" /></svg>