<?xml version="1.0" standalone="no"?><!DOCTYPE svg PUBLIC "-//W3C//DTD SVG 1.1//EN" "http://www.w3.org/Graphics/SVG/1.1/DTD/svg11.dtd"><svg class="icon" width="200px" height="200.00px" viewBox="0 0 1024 1024" version="1.1" xmlns="http://www.w3.org/2000/svg"><path fill="#333333" d="M489.301333 408.832a80.896 80.896 0 0 1-80.896 80.896H208.810667a81.408 81.408 0 0 1-80.896-80.896V208.896a80.896 80.896 0 0 1 80.896-80.896h199.594666a80.896 80.896 0 0 1 80.896 80.896z m406.698667 0V208.896a80.896 80.896 0 0 0-80.896-80.896H615.082667a80.896 80.896 0 0 0-80.896 80.896v200.021333a80.896 80.896 0 0 0 80.896 80.896h200.021333a80.896 80.896 0 0 0 80.896-80.981333z m-46.762667-200.021333v200.021333a34.133333 34.133333 0 0 1-34.133333 34.133333H615.082667a34.133333 34.133333 0 0 1-34.133334-34.133333V208.896a34.133333 34.133333 0 0 1 34.133334-34.133333h200.021333a34.133333 34.133333 0 0 1 34.133333 34.133333z m-359.936 605.866666a80.896 80.896 0 0 1-80.896 80.896H208.810667a80.896 80.896 0 0 1-80.896-80.896V614.656a80.896 80.896 0 0 1 80.896-80.896h199.594666a80.896 80.896 0 0 1 80.896 80.896z m406.698667 0a80.896 80.896 0 0 1-80.896 80.896H615.082667a80.896 80.896 0 0 1-80.896-80.896V614.656a80.896 80.896 0 0 1 80.896-80.896h200.021333a80.896 80.896 0 0 1 80.896 80.896z" /></svg>